<?xml version="1.0" encoding="UTF-8"?>
<svg width="100%" height="100%" viewBox="0 0 100 84" version="1.1" xmlns="http://www.w3.org/2000/svg">
    <path d="M98.4,0C96.6,12.2,91.9,21.1,85.3,28C73.8,40.3,60.5,43.2,60.5,43.2c2.7-14.6,13.5-28,25.2-34.8
        C91.8,4.1,98.4,0,98.4,0z M74.6,31.1c0.3-1.2,0.5-2.4,0.7-3.6c2.9-15.7-1-27.5-1-27.5s-0.3,22.9-12.6,41.8
        c-9.1,14.1-20.3,19.9-26.2,21.9c-0.8,0.3-1.5,0.5-2.2,0.7c-0.3,0.1-0.6,0.2-0.9,0.2c-0.3-0.1-0.6-0.1-0.9-0.2
        c-0.7-0.2-1.4-0.4-2.2-0.7c-5.9-2-17.1-7.8-26.2-21.9C-9.2,22.9-9.5,0-9.5,0s-3.9,11.8-1,27.5c0.2,1.2,0.4,2.4,0.7,3.6
        c3.5,16.9,14.8,27.4,27.5,33.3c8.8,4.1,16.8,5.5,21.1,6c0.7,0.1,1.3,0.1,1.8,0.2c0,0,0,0,0.1,0c0,0,0,0,0.1,0
        c0.5,0,1.1-0.1,1.8-0.2c4.3-0.5,12.3-1.9,21.1-6C59.8,58.5,71.1,48,74.6,31.1z" fill="#FFC72C"/>
</svg>